<svg width="44" height="44" viewBox="0 0 44 44" fill="none" xmlns="http://www.w3.org/2000/svg">
<path d="M0 21.7014C0 9.71604 9.71604 0 21.7014 0C33.6867 0 43.4028 9.71604 43.4028 21.7014C43.4028 33.6867 33.6867 43.4028 21.7014 43.4028C9.71604 43.4028 0 33.6867 0 21.7014Z" fill="url(#paint0_linear_522_164)"/>
<g clip-path="url(#clip0_522_164)">
<path d="M8.68408 28.6458H22.1211V14.757H8.68408V28.6458ZM15.145 18.0831L15.1846 20.735H19.8618V23.4768H15.2242L15.2639 26.1288L10.6263 22.0835L15.145 18.0831Z" fill="white"/>
<path d="M28.0671 14.757H24.1826V28.6458H28.0671V14.757Z" fill="white"/>
<path d="M34.7228 14.757H30.8384V28.6458H34.7228V14.757Z" fill="white"/>
</g>
<defs>
<linearGradient id="paint0_linear_522_164" x1="21.7014" y1="0" x2="21.7014" y2="43.4028" gradientUnits="userSpaceOnUse">
<stop stop-color="#B32070"/>
<stop offset="1" stop-color="#FB3179"/>
</linearGradient>
<clipPath id="clip0_522_164">
<rect width="26.0417" height="13.8889" fill="white" transform="translate(8.68066 14.757)"/>
</clipPath>
</defs>
</svg>
