<svg width="16" height="16" viewBox="0 0 16 16" fill="none" xmlns="http://www.w3.org/2000/svg">
<path d="M2.66646 8.01665C2.66646 8.96109 2.90268 9.83887 3.37513 10.65C3.84757 11.4611 4.48913 12.1111 5.29979 12.6C5.45535 12.7 5.56379 12.8362 5.62513 13.0086C5.68646 13.1811 5.67246 13.3449 5.58313 13.5C5.49424 13.6666 5.35824 13.7751 5.17513 13.8253C4.99202 13.8755 4.8169 13.856 4.64979 13.7666C3.61646 13.1666 2.80535 12.3555 2.21646 11.3333C1.62757 10.3111 1.33313 9.20553 1.33313 8.01665C1.33313 7.72776 1.35268 7.44442 1.39179 7.16665C1.4309 6.88887 1.48357 6.61109 1.54979 6.33331L1.33313 6.46665C1.17757 6.56665 1.0109 6.59176 0.833126 6.54198C0.655349 6.4922 0.522015 6.38931 0.433126 6.23331C0.344237 6.07731 0.324682 5.90776 0.37446 5.72465C0.424237 5.54154 0.527126 5.40554 0.683126 5.31665L2.69979 4.14998C2.85535 4.06109 3.0249 4.04176 3.20846 4.09198C3.39202 4.1422 3.52802 4.24487 3.61646 4.39998L4.78313 6.39998C4.87202 6.55554 4.89157 6.72509 4.84179 6.90865C4.79202 7.0922 4.68913 7.2282 4.53313 7.31665C4.37713 7.40509 4.20779 7.42465 4.02513 7.37531C3.84246 7.32598 3.70624 7.22309 3.61646 7.06665L3.04979 6.08331C2.92757 6.39442 2.83313 6.71109 2.76646 7.03331C2.69979 7.35554 2.66646 7.68331 2.66646 8.01665ZM7.99979 2.66665C7.54424 2.66665 7.09424 2.72509 6.64979 2.84198C6.20535 2.95887 5.78313 3.1282 5.38313 3.34998C5.21646 3.43887 5.04157 3.46954 4.85846 3.44198C4.67535 3.41442 4.53913 3.32265 4.44979 3.16665C4.34979 2.98887 4.32757 2.80842 4.38313 2.62531C4.43868 2.4422 4.55535 2.30042 4.73313 2.19998C5.23313 1.91109 5.75824 1.69442 6.30846 1.54998C6.85868 1.40554 7.42246 1.33331 7.99979 1.33331C8.87757 1.33331 9.71935 1.49731 10.5251 1.82531C11.3309 2.15331 12.0502 2.6282 12.6831 3.24998V2.99998C12.6831 2.81109 12.7471 2.65287 12.8751 2.52531C13.0031 2.39776 13.1613 2.33376 13.3498 2.33331C13.5382 2.33287 13.6967 2.39687 13.8251 2.52531C13.9536 2.65376 14.0173 2.81198 14.0165 2.99998V5.33331C14.0165 5.5222 13.9527 5.68065 13.8251 5.80865C13.6976 5.93665 13.5391 6.00042 13.3498 5.99998H11.0165C10.8276 5.99998 10.6693 5.93598 10.5418 5.80798C10.4142 5.67998 10.3502 5.52176 10.3498 5.33331C10.3493 5.14487 10.4133 4.98665 10.5418 4.85865C10.6702 4.73065 10.8285 4.66665 11.0165 4.66665H12.1665C11.6553 4.03331 11.0387 3.54176 10.3165 3.19198C9.59424 2.8422 8.82201 2.66709 7.99979 2.66665ZM12.0331 11.5166C12.4553 11.0278 12.7776 10.4889 12.9998 9.89998C13.222 9.31109 13.3331 8.69442 13.3331 8.04998C13.3331 7.86109 13.3971 7.69442 13.5251 7.54998C13.6531 7.40554 13.8113 7.33331 13.9998 7.33331C14.1882 7.33331 14.3467 7.40554 14.4751 7.54998C14.6036 7.69442 14.6673 7.86109 14.6665 8.04998C14.6665 8.7722 14.5525 9.46931 14.3245 10.1413C14.0965 10.8133 13.766 11.4384 13.3331 12.0166C12.9002 12.5949 12.3865 13.0893 11.7918 13.5C11.1971 13.9106 10.5498 14.2162 9.84979 14.4166L10.0165 14.5166C10.172 14.6055 10.272 14.7418 10.3165 14.9253C10.3609 15.1089 10.3387 15.2782 10.2498 15.4333C10.1609 15.5884 10.0276 15.6884 9.84979 15.7333C9.67202 15.7782 9.50535 15.756 9.34979 15.6666L7.31646 14.5C7.1609 14.4111 7.05824 14.2749 7.00846 14.0913C6.95868 13.9078 6.97802 13.7384 7.06646 13.5833L8.23313 11.5666C8.32202 11.4111 8.45535 11.3111 8.63313 11.2666C8.8109 11.2222 8.97757 11.2444 9.13313 11.3333C9.28868 11.4222 9.39157 11.5584 9.44179 11.742C9.49201 11.9255 9.47246 12.0949 9.38313 12.25L8.76646 13.3C9.39979 13.2111 9.99713 13.0138 10.5585 12.708C11.1198 12.4022 11.6113 12.0051 12.0331 11.5166Z" fill="#F36F56"/>
</svg>
