<svg width="16" height="16" viewBox="0 0 16 16" fill="none" xmlns="http://www.w3.org/2000/svg">
<g clip-path="url(#clip0_75_2013)">
<path d="M2.6662 1.33331C4.00041 2.44551 4.66748 3.55715 4.66748 4.66818C4.66748 6.33475 3.33286 7.08118 2.6662 7.99998C1.99953 8.91878 1.66797 9.97701 1.66797 11.3344C1.66797 12.2393 2.00071 13.3501 2.6662 14.6666" stroke="#FB3179" stroke-width="2" stroke-linecap="square"/>
<path d="M13.3343 1.33331C12.0001 2.44551 11.333 3.55715 11.333 4.66818C11.333 6.33475 12.6676 7.08118 13.3343 7.99998C14.001 8.91878 14.3325 9.97701 14.3325 11.3344C14.3325 12.2393 13.9998 13.3501 13.3343 14.6666" stroke="#FB3179" stroke-width="2" stroke-linecap="square"/>
<path d="M4.66797 9.72749C5.5085 9.64695 6.2064 9.76709 6.76177 10.0879C7.59477 10.5692 7.99724 11.1199 8 11.6524C8.00187 12.0074 8.00187 13.0122 8 14.6667" stroke="#FB3179" stroke-width="2" stroke-linecap="square"/>
<path d="M11.334 9.72749C10.4935 9.64695 9.79555 9.76709 9.24022 10.0879C8.40719 10.5692 8.00472 11.1199 8.00195 11.6524" stroke="#FB3179" stroke-width="2" stroke-linecap="square"/>
</g>
<defs>
<clipPath id="clip0_75_2013">
<rect width="16" height="16" fill="white"/>
</clipPath>
</defs>
</svg>
